# Blender 4.2.3 LTS
# www.blender.org
mtllib square_bot_blade.mtl
o rectangle_bot_blade
v -0.020719 -0.025440 -0.151142
v -0.020719 -0.025439 0.145461
v -0.021752 -0.023521 0.145702
v -0.022192 -0.022514 -0.151485
v -0.022577 -0.021482 0.145894
v -0.023174 -0.019359 -0.151714
v -0.023384 -0.018277 0.146082
v -0.023533 -0.017189 -0.151798
v -0.023652 -0.015013 0.146145
v -0.023652 -0.015013 -0.151826
v -0.022812 0.134574 -0.158059
v -0.021778 0.134574 -0.160775
v -0.021778 -0.007200 -0.160775
v -0.022808 -0.007269 -0.158061
v -0.023441 0.134574 -0.155222
v -0.023438 -0.007398 -0.155218
v -0.023652 0.134574 -0.152323
v -0.023652 -0.007467 -0.152323
v -0.023652 0.134574 0.148043
v -0.023652 -0.007467 0.148043
v -0.023438 -0.007398 0.150939
v -0.023441 0.134574 0.150942
v -0.022808 -0.007269 0.153781
v -0.022812 0.134574 0.153779
v -0.021778 -0.007200 0.156496
v -0.021778 0.134574 0.156496
v -0.018283 -0.025146 0.157650
v 0.044424 -0.025146 0.292126
v 0.043459 -0.023292 0.292296
v -0.019637 -0.022323 0.157935
v 0.042692 -0.021332 0.292431
v -0.020538 -0.019299 0.158124
v 0.041941 -0.018265 0.292564
v -0.020867 -0.017225 0.158193
v 0.041692 -0.015146 0.292608
v -0.020976 -0.015146 0.158216
v 0.044424 -0.025146 -0.296406
v -0.018283 -0.025146 -0.161930
v -0.019234 -0.023292 -0.162130
v 0.043050 -0.022323 -0.296648
v -0.019990 -0.021332 -0.162289
v 0.042136 -0.019299 -0.296809
v -0.020730 -0.018265 -0.162444
v 0.041802 -0.017225 -0.296868
v -0.020976 -0.015146 -0.162496
v 0.041692 -0.015146 -0.296887
v -0.023652 -0.007467 -0.151826
v -0.023652 -0.007467 0.146145
v -0.020976 -0.007200 0.158216
v 0.041692 0.134574 0.292608
v 0.010919 -0.077227 -0.153270
v -0.015857 -0.033398 -0.148875
v -0.015857 -0.033398 -0.153270
v -0.015857 -0.033398 0.143194
v 0.010919 -0.077227 0.148990
v -0.016457 -0.032416 0.148990
v -0.015857 -0.033398 0.148710
v -0.020976 -0.007200 -0.162496
v 0.041692 0.134574 -0.296887
v 0.015002 -0.077818 0.157074
v 0.078872 -0.077818 0.294044
v -0.012993 -0.033452 0.157650
v -0.014015 -0.033452 0.155458
v -0.012993 -0.033452 -0.161930
v 0.015538 -0.077818 -0.162504
v -0.013478 -0.033452 -0.160889
v 0.078872 -0.077818 -0.298324
v -0.012186 -0.020226 -0.151142
v -0.012771 -0.019117 0.145734
v -0.012186 -0.020226 0.145461
v -0.012922 -0.018764 -0.151485
v -0.013216 -0.017933 0.145941
v -0.013376 -0.017347 -0.151697
v -0.013544 -0.016482 0.146094
v -0.013583 -0.016183 -0.151793
v -0.013652 -0.015013 0.146145
v -0.013652 -0.015013 -0.151826
v -0.012715 0.134574 -0.156549
v -0.013228 -0.007268 -0.155206
v -0.012715 -0.007200 -0.156549
v -0.013232 0.134574 -0.155191
v -0.013546 0.134574 -0.153772
v -0.013549 -0.007399 -0.153757
v -0.013652 0.134574 -0.152323
v -0.013652 -0.007467 -0.152323
v -0.013652 0.134574 0.148043
v -0.013549 -0.007399 0.149477
v -0.013652 -0.007467 0.148043
v -0.013546 0.134574 0.149492
v -0.013228 -0.007268 0.150926
v -0.013232 0.134574 0.150911
v -0.012715 0.134574 0.152269
v -0.012715 -0.007200 0.152269
v -0.010435 -0.020146 0.153990
v 0.051666 -0.019075 0.288432
v 0.052272 -0.020146 0.288466
v -0.011178 -0.018735 0.153990
v 0.051205 -0.017937 0.288407
v -0.011672 -0.017223 0.153990
v 0.050867 -0.016550 0.288388
v -0.011853 -0.016186 0.153990
v 0.050755 -0.015146 0.288382
v -0.011913 -0.015146 0.153990
v 0.052272 -0.020146 -0.292746
v -0.010956 -0.019219 -0.158270
v -0.010434 -0.020146 -0.158270
v 0.051509 -0.018735 -0.292703
v -0.011372 -0.018239 -0.158270
v 0.051040 -0.017377 -0.292677
v -0.011778 -0.016706 -0.158270
v 0.050826 -0.016264 -0.292665
v -0.011913 -0.015146 -0.158270
v 0.050755 -0.015146 -0.292661
v -0.013652 -0.007467 -0.151826
v -0.013652 -0.007467 0.146145
v -0.011913 -0.007200 0.153990
v 0.050755 0.134574 0.288382
v 0.019452 -0.072014 -0.153270
v -0.007324 -0.028185 -0.153270
v -0.007324 -0.028185 -0.148875
v -0.007324 -0.028185 0.143194
v 0.019452 -0.072014 0.148990
v -0.007324 -0.028185 0.148710
v -0.007923 -0.027203 0.148990
v -0.011913 -0.007200 -0.158270
v 0.050755 0.134574 -0.292661
v 0.022851 -0.072818 0.153414
v 0.086721 -0.072818 0.290384
v -0.005144 -0.028452 0.153990
v -0.006166 -0.028452 0.151798
v -0.005144 -0.028452 -0.158270
v -0.005629 -0.028452 -0.157229
v 0.023387 -0.072818 -0.158844
v 0.086721 -0.072818 -0.294664
vn -0.8805 -0.4740 -0.0000
vn -0.9270 -0.3750 0.0001
vn -0.8932 -0.4497 -0.0002
vn -0.9697 -0.2442 0.0002
vn -0.9548 -0.2972 -0.0002
vn -0.9966 -0.0819 0.0002
vn -0.9866 -0.1633 -0.0001
vn -0.9985 -0.0545 -0.0000
vn -0.9346 -0.0000 -0.3556
vn -0.9350 -0.0000 -0.3548
vn -0.9763 -0.0000 -0.2164
vn -0.9973 -0.0000 -0.0736
vn -0.9974 -0.0000 -0.0727
vn -0.9973 -0.0000 0.0736
vn -0.9763 -0.0000 0.2164
vn -0.9974 -0.0000 0.0727
vn -0.9350 -0.0000 0.3547
vn -0.9346 -0.0000 0.3556
vn -0.8074 -0.4542 0.3765
vn -0.8459 -0.3588 0.3946
vn -0.8180 -0.4308 0.3811
vn -0.8811 -0.2333 0.4113
vn -0.8691 -0.2841 0.4049
vn -0.9034 -0.0782 0.4217
vn -0.8953 -0.1560 0.4173
vn -0.9051 -0.0520 0.4220
vn -0.8074 -0.4543 -0.3765
vn -0.8460 -0.3588 -0.3943
vn -0.8178 -0.4307 -0.3817
vn -0.8814 -0.2333 -0.4106
vn -0.8688 -0.2841 -0.4055
vn -0.9037 -0.0782 -0.4210
vn -0.8951 -0.1560 -0.4176
vn -0.9051 -0.0520 -0.4220
vn -1.0000 -0.0000 -0.0000
vn -0.9063 -0.0000 0.4227
vn -0.9063 -0.0000 0.4226
vn -0.8534 -0.5213 -0.0000
vn -0.8533 -0.5213 -0.0000
vn -0.9063 -0.0000 -0.4226
vn -0.7849 -0.5000 0.3660
vn -0.7849 -0.5000 -0.3660
vn 0.8843 0.4668 -0.0000
vn 0.9360 0.3519 -0.0001
vn 0.8932 0.4497 0.0001
vn 0.9755 0.2200 -0.0001
vn 0.9523 0.3051 0.0001
vn 0.9973 0.0736 -0.0001
vn 0.9845 0.1756 -0.0000
vn 0.9983 0.0585 -0.0000
vn 0.9344 -0.0000 0.3564
vn 0.9346 -0.0000 0.3556
vn 0.9763 -0.0000 0.2164
vn 0.9974 -0.0000 0.0718
vn 0.9974 -0.0000 0.0726
vn 0.9974 -0.0000 -0.0718
vn 0.9763 -0.0000 -0.2164
vn 0.9974 -0.0000 -0.0726
vn 0.9344 -0.0000 -0.3563
vn 0.9346 -0.0000 -0.3556
vn 0.8106 0.4472 -0.3780
vn 0.8534 0.3366 -0.3980
vn 0.8180 0.4308 -0.3813
vn 0.8860 0.2102 -0.4133
vn 0.8690 0.2841 -0.4050
vn 0.9040 0.0704 -0.4217
vn 0.8952 0.1560 -0.4174
vn 0.9051 0.0521 -0.4220
vn 0.8074 0.4542 0.3765
vn 0.8460 0.3588 0.3944
vn 0.8179 0.4306 0.3816
vn 0.8814 0.2333 0.4108
vn 0.8668 0.2917 0.4044
vn 0.9036 0.0782 0.4212
vn 0.8934 0.1677 0.4167
vn 0.9049 0.0560 0.4220
vn 1.0000 -0.0000 -0.0000
vn 0.9063 -0.0000 -0.4226
vn 0.8534 0.5213 -0.0000
vn 0.8533 0.5214 0.0001
vn 0.9063 -0.0000 0.4226
vn 0.7849 0.5000 -0.3660
vn 0.7849 0.5000 0.3660
vn 0.3677 0.0996 -0.9246
vn 0.3384 0.2105 -0.9172
vn 0.3672 0.1445 -0.9189
vn 0.4037 0.0875 -0.9107
vn 0.4065 0.0743 -0.9106
vn 0.4194 0.0299 -0.9073
vn 0.4182 0.0416 -0.9074
vn 0.4226 0.0140 -0.9062
vn 0.2909 0.2241 -0.9301
vn 0.4532 -0.8660 0.2113
vn -0.2909 -0.2241 0.9301
vn -0.4531 0.8660 -0.2113
vn -0.4532 0.8660 -0.2113
vn -0.3087 -0.1966 0.9306
vn -0.4223 -0.0366 0.9057
vn -0.4048 -0.1072 0.9081
vn -0.4200 -0.0180 0.9074
vn -0.3705 -0.1572 0.9154
vn -0.4067 -0.0518 0.9121
vn -0.3903 -0.0762 0.9175
vn -0.3194 -0.1797 0.9304
vn -0.3813 -0.0964 0.9194
vn -0.4226 -0.0000 0.9063
vn -0.0000 -1.0000 -0.0000
vn 0.0127 -0.9990 -0.0423
vn 0.0069 -0.9997 -0.0229
vn 0.0201 -0.9989 -0.0430
vn 0.0034 -0.9997 -0.0236
vn 0.0127 -0.9961 -0.0870
vn -0.0000 -0.9989 -0.0475
vn -0.0000 -0.0000 -1.0000
vn 0.1073 -0.1757 -0.9786
vn 0.0392 -0.0970 -0.9945
vn 0.0156 -0.0675 -0.9976
vn 0.0530 -0.1310 -0.9900
vn 0.0043 -0.0379 -0.9993
vn 0.0181 -0.0796 -0.9967
vn -0.0000 -0.0127 -0.9999
vn 0.0032 -0.0272 -0.9996
vn 0.1231 -0.2016 -0.9717
vn -0.5213 0.8534 -0.0000
vn 0.5213 -0.8534 -0.0000
vn -0.0000 -0.0000 1.0000
vn -0.1232 0.2016 -0.9717
vn 0.1231 -0.2016 0.9717
vn -0.0000 -0.0344 0.9994
vn 0.0022 -0.0190 0.9998
vn 0.0157 -0.0547 0.9984
vn 0.0172 -0.1008 0.9948
vn 0.0355 -0.0796 0.9962
vn 0.0530 -0.1531 0.9868
vn 0.0574 -0.0939 0.9939
vn 0.0909 -0.1925 0.9771
vn 0.0064 -0.9990 0.0437
vn 0.0034 -0.9997 0.0236
vn -0.0000 -0.9989 0.0475
vn 0.0069 -0.9997 0.0229
vn 0.0252 -0.9961 0.0842
vn 0.0201 -0.9989 0.0430
vn -0.4226 -0.0000 -0.9063
vn -0.3248 -0.1710 -0.9302
vn -0.3879 -0.0935 -0.9169
vn -0.3941 -0.1289 -0.9100
vn -0.4001 -0.0619 -0.9144
vn -0.4146 -0.0723 -0.9071
vn -0.4155 -0.0356 -0.9089
vn -0.4225 -0.0243 -0.9060
vn -0.4214 -0.0121 -0.9068
vn -0.3087 -0.1966 -0.9306
vn -0.4531 0.8660 0.2113
vn -0.4532 0.8660 0.2113
vn -0.2909 -0.2241 -0.9301
vn 0.4532 -0.8660 -0.2113
vn 0.2909 0.2241 0.9301
vn 0.4223 0.0378 0.9057
vn 0.4204 0.0208 0.9071
vn 0.4069 0.0602 0.9115
vn 0.4036 0.1107 0.9082
vn 0.3869 0.0882 0.9179
vn 0.3655 0.1686 0.9154
vn 0.3647 0.1047 0.9252
vn 0.3245 0.2129 0.9216
vn 0.4226 -0.0000 0.9063
vn -0.0000 1.0000 -0.0000
vn 0.4226 -0.0000 -0.9063
s 0
f 1//1 2//1 3//1
f 4//2 3//2 5//2
f 4//3 1//3 3//3
f 6//4 5//4 7//4
f 6//5 4//5 5//5
f 8//6 7//6 9//6
f 8//7 6//7 7//7
f 10//8 8//8 9//8
f 11//9 12//9 13//9
f 11//10 13//10 14//10
f 15//11 14//11 16//11
f 15//11 11//11 14//11
f 17//12 16//12 18//12
f 17//13 15//13 16//13
f 19//14 20//14 21//14
f 22//15 21//15 23//15
f 22//16 19//16 21//16
f 24//17 23//17 25//17
f 24//15 22//15 23//15
f 26//18 24//18 25//18
f 27//19 28//19 29//19
f 30//20 29//20 31//20
f 30//21 27//21 29//21
f 32//22 31//22 33//22
f 32//23 30//23 31//23
f 34//24 33//24 35//24
f 34//25 32//25 33//25
f 36//26 34//26 35//26
f 37//27 38//27 39//27
f 40//28 39//28 41//28
f 40//29 37//29 39//29
f 42//30 41//30 43//30
f 42//31 40//31 41//31
f 44//32 43//32 45//32
f 44//33 42//33 43//33
f 46//34 44//34 45//34
f 47//35 17//35 18//35
f 48//35 19//35 17//35
f 48//35 17//35 47//35
f 20//35 19//35 48//35
f 9//35 47//35 10//35
f 9//35 48//35 47//35
f 26//36 25//36 49//36
f 35//37 49//37 36//37
f 50//37 26//37 49//37
f 50//37 49//37 35//37
f 51//38 52//38 53//38
f 54//38 1//38 52//38
f 54//38 2//38 1//38
f 54//38 52//38 51//38
f 55//39 56//39 57//39
f 55//38 57//38 54//38
f 55//38 54//38 51//38
f 58//40 12//40 59//40
f 58//40 59//40 46//40
f 13//40 12//40 58//40
f 45//40 58//40 46//40
f 60//41 61//41 28//41
f 62//41 60//41 28//41
f 63//41 60//41 62//41
f 27//41 62//41 28//41
f 64//42 65//42 66//42
f 37//42 64//42 38//42
f 37//42 67//42 65//42
f 37//42 65//42 64//42
f 68//43 69//43 70//43
f 71//44 72//44 69//44
f 71//45 69//45 68//45
f 73//46 74//46 72//46
f 73//47 72//47 71//47
f 75//48 76//48 74//48
f 75//49 74//49 73//49
f 77//50 76//50 75//50
f 78//51 79//51 80//51
f 81//52 79//52 78//52
f 82//53 83//53 79//53
f 82//53 79//53 81//53
f 84//54 85//54 83//54
f 84//55 83//55 82//55
f 86//56 87//56 88//56
f 89//57 90//57 87//57
f 89//58 87//58 86//58
f 91//57 90//57 89//57
f 92//59 93//59 90//59
f 92//60 90//60 91//60
f 94//61 95//61 96//61
f 97//62 98//62 95//62
f 97//63 95//63 94//63
f 99//64 100//64 98//64
f 99//65 98//65 97//65
f 101//66 102//66 100//66
f 101//67 100//67 99//67
f 103//68 102//68 101//68
f 104//69 105//69 106//69
f 107//70 108//70 105//70
f 107//71 105//71 104//71
f 109//72 110//72 108//72
f 109//73 108//73 107//73
f 111//74 112//74 110//74
f 111//75 110//75 109//75
f 113//76 112//76 111//76
f 114//77 85//77 84//77
f 115//77 84//77 86//77
f 115//77 77//77 114//77
f 115//77 114//77 84//77
f 88//77 115//77 86//77
f 76//77 77//77 115//77
f 92//78 116//78 93//78
f 102//78 103//78 116//78
f 117//78 116//78 92//78
f 117//78 102//78 116//78
f 118//79 119//79 120//79
f 70//79 120//79 68//79
f 121//79 120//79 70//79
f 121//79 118//79 120//79
f 122//80 123//80 124//80
f 122//79 121//79 123//79
f 122//79 118//79 121//79
f 125//81 113//81 126//81
f 125//81 126//81 78//81
f 80//81 125//81 78//81
f 112//81 113//81 125//81
f 127//82 96//82 128//82
f 129//82 96//82 127//82
f 130//82 129//82 127//82
f 94//82 96//82 129//82
f 131//83 132//83 133//83
f 104//83 106//83 131//83
f 104//83 133//83 134//83
f 104//83 131//83 133//83
f 40//84 104//84 37//84
f 40//85 107//85 104//85
f 40//86 109//86 107//86
f 42//87 111//87 109//87
f 42//88 109//88 40//88
f 44//89 113//89 111//89
f 44//90 111//90 42//90
f 46//91 113//91 44//91
f 67//92 37//92 104//92
f 67//92 104//92 134//92
f 133//93 67//93 134//93
f 65//93 67//93 133//93
f 133//94 132//94 66//94
f 65//94 133//94 66//94
f 64//95 132//95 131//95
f 66//96 132//96 64//96
f 38//97 131//97 106//97
f 64//97 131//97 38//97
f 45//98 110//98 112//98
f 43//99 108//99 110//99
f 43//100 110//100 45//100
f 41//101 105//101 108//101
f 41//102 108//102 43//102
f 39//103 105//103 41//103
f 38//104 106//104 105//104
f 38//105 105//105 39//105
f 58//106 112//106 125//106
f 45//106 112//106 58//106
f 13//107 125//107 80//107
f 58//107 125//107 13//107
f 79//108 16//108 14//108
f 79//109 14//109 13//109
f 79//110 13//110 80//110
f 83//111 18//111 16//111
f 83//112 16//112 79//112
f 85//113 18//113 83//113
f 18//107 85//107 114//107
f 18//107 114//107 47//107
f 47//114 114//114 77//114
f 47//114 77//114 10//114
f 71//115 68//115 1//115
f 71//116 1//116 4//116
f 73//117 4//117 6//117
f 73//118 71//118 4//118
f 75//119 6//119 8//119
f 75//120 73//120 6//120
f 77//121 8//121 10//121
f 77//122 75//122 8//122
f 120//123 52//123 1//123
f 68//123 120//123 1//123
f 52//124 120//124 119//124
f 52//124 119//124 53//124
f 53//114 118//114 51//114
f 119//114 118//114 53//114
f 55//125 51//125 118//125
f 55//125 118//125 122//125
f 56//126 55//126 122//126
f 124//126 56//126 122//126
f 57//127 124//127 123//127
f 56//127 124//127 57//127
f 57//124 123//124 121//124
f 57//124 121//124 54//124
f 54//128 121//128 70//128
f 2//128 54//128 70//128
f 74//129 76//129 9//129
f 74//130 9//130 7//130
f 72//131 7//131 5//131
f 72//132 74//132 7//132
f 69//133 5//133 3//133
f 69//134 72//134 5//134
f 70//135 3//135 2//135
f 70//136 69//136 3//136
f 76//126 48//126 9//126
f 76//126 115//126 48//126
f 48//107 115//107 88//107
f 48//107 88//107 20//107
f 87//137 23//137 21//137
f 87//138 21//138 20//138
f 87//139 20//139 88//139
f 90//140 25//140 23//140
f 90//141 23//141 87//141
f 93//142 25//142 90//142
f 25//107 93//107 116//107
f 25//107 116//107 49//107
f 49//143 116//143 103//143
f 49//143 103//143 36//143
f 27//144 97//144 94//144
f 30//145 97//145 27//145
f 32//146 99//146 97//146
f 32//147 97//147 30//147
f 34//148 101//148 99//148
f 34//149 99//149 32//149
f 36//150 103//150 101//150
f 36//151 101//151 34//151
f 94//152 129//152 62//152
f 27//152 94//152 62//152
f 62//153 129//153 130//153
f 62//154 130//154 63//154
f 130//155 127//155 60//155
f 63//155 130//155 60//155
f 128//156 60//156 127//156
f 128//156 61//156 60//156
f 28//157 61//157 128//157
f 28//157 128//157 96//157
f 100//158 102//158 35//158
f 100//159 35//159 33//159
f 98//160 33//160 31//160
f 98//161 100//161 33//161
f 95//162 31//162 29//162
f 95//163 98//163 31//163
f 96//164 29//164 28//164
f 96//165 95//165 29//165
f 102//166 117//166 50//166
f 35//166 102//166 50//166
f 26//167 50//167 117//167
f 26//167 117//167 92//167
f 26//167 92//167 91//167
f 24//167 26//167 91//167
f 22//167 89//167 86//167
f 22//167 91//167 89//167
f 22//167 24//167 91//167
f 19//167 22//167 86//167
f 17//167 19//167 86//167
f 17//167 86//167 84//167
f 15//167 17//167 84//167
f 15//167 84//167 82//167
f 11//167 82//167 81//167
f 11//167 15//167 82//167
f 12//167 81//167 78//167
f 12//167 11//167 81//167
f 126//167 12//167 78//167
f 59//167 12//167 126//167
f 46//168 59//168 126//168
f 46//168 126//168 113//168
